<?xml version="1.0" encoding="UTF-8"?>
<svg id="Layer_2" data-name="Layer 2" xmlns="http://www.w3.org/2000/svg" xmlns:xlink="http://www.w3.org/1999/xlink" viewBox="0 0 2129.41 1318.21">
  <defs>
    <style>
      .cls-1 {
        fill: url(#linear-gradient-5);
      }

      .cls-2 {
        fill: url(#linear-gradient-6);
      }

      .cls-3 {
        fill: url(#linear-gradient-4);
      }

      .cls-4 {
        fill: url(#linear-gradient-3);
      }

      .cls-5 {
        fill: url(#linear-gradient-2);
      }

      .cls-6 {
        fill: url(#linear-gradient);
      }
    </style>
    <linearGradient id="linear-gradient" x1="152.1" y1="405.6" x2="152.1" y2="912.6" gradientUnits="userSpaceOnUse">
      <stop offset="0" stop-color="#919cac"/>
      <stop offset="1" stop-color="#d7dce5"/>
    </linearGradient>
    <linearGradient id="linear-gradient-2" x1="1977.31" x2="1977.31" xlink:href="#linear-gradient"/>
    <linearGradient id="linear-gradient-3" x1="1571.71" y1="0" x2="1571.71" y2="1115.4" xlink:href="#linear-gradient"/>
    <linearGradient id="linear-gradient-4" x1="1216.56" y1="101.9" x2="1216.56" y2="1014.1" gradientUnits="userSpaceOnUse">
      <stop offset="0" stop-color="#3377a8"/>
      <stop offset="1" stop-color="#9bbbd3"/>
    </linearGradient>
    <linearGradient id="linear-gradient-5" x1="557.7" y1="202.8" x2="557.7" y2="1318.21" xlink:href="#linear-gradient"/>
    <linearGradient id="linear-gradient-6" x1="912.25" y1="304.37" x2="912.25" y2="1216.84" xlink:href="#linear-gradient-4"/>
  </defs>
  <g id="Layer_1-2" data-name="Layer 1">
    <g>
      <path class="cls-6" d="M304.2,435.9v446.4c0,16.74-13.57,30.3-30.3,30.3h-40.8c-16.74,0-30.3-13.57-30.3-30.3v-142.2c0-16.74-13.57-30.3-30.3-30.3H30.3c-16.74,0-30.3-13.57-30.3-30.3v-40.8c0-16.74,13.57-30.3,30.3-30.3h142.2c16.74,0,30.3-13.57,30.3-30.3v-142.2c0-16.74,13.57-30.3,30.3-30.3h40.8c16.74,0,30.3,13.57,30.3,30.3Z"/>
      <path class="cls-5" d="M2129.41,638.7v40.8c0,16.74-13.57,30.3-30.3,30.3h-142.2c-16.74,0-30.3,13.57-30.3,30.3v142.2c0,16.74-13.57,30.3-30.3,30.3h-40.8c-16.74,0-30.3-13.57-30.3-30.3v-446.4c0-16.74,13.57-30.3,30.3-30.3h40.8c16.74,0,30.3,13.57,30.3,30.3v142.2c0,16.74,13.57,30.3,30.3,30.3h142.2c16.74,0,30.3,13.57,30.3,30.3Z"/>
      <path class="cls-4" d="M1723.81,233.1v852c0,16.74-13.57,30.3-30.3,30.3h-40.8c-16.74,0-30.3-13.57-30.3-30.3v-345c0-16.74-13.57-30.3-30.3-30.3h-142.2c-16.74,0-30.3-13.57-30.3-30.3V30.3c0-16.74,13.57-30.3,30.3-30.3h40.8c16.74,0,30.3,13.57,30.3,30.3v547.8c0,16.74,13.57,30.3,30.3,30.3h40.8c16.74,0,30.3-13.57,30.3-30.3V233.1c0-16.74,13.57-30.3,30.3-30.3h40.8c16.74,0,30.3,13.57,30.3,30.3Z"/>
      <path class="cls-3" d="M1292.78,101.9c29.53,1.82,23.21,30.47,25.38,64.78.09,23.34.03,46.03.05,69.84,0,150.35,0,314.74,0,467.11,0,43.11,0,84.29,0,126.35,1.32,47.85-.98,91.84-41.63,118.44-35.92,25.91-86.2,54.07-127.14,64.67-15.95,3.48-28.53-1.74-31.4-21.42-7.11-173.56-.39-512.96-2.63-697.96.88-38.17-4.53-80.42,23.43-109.54,32.8-32.58,110.06-76.02,153.86-82.27h.09Z"/>
      <path class="cls-1" d="M709.8,638.7v649.2c0,16.74-13.57,30.3-30.3,30.3h-40.8c-16.74,0-30.3-13.57-30.3-30.3v-547.8c0-16.74-13.57-30.3-30.3-30.3h-40.8c-16.74,0-30.3,13.57-30.3,30.3v345c0,16.74-13.57,30.3-30.3,30.3h-40.8c-16.74,0-30.3-13.57-30.3-30.3V233.1c0-16.74,13.57-30.3,30.3-30.3h40.8c16.74,0,30.3,13.57,30.3,30.3v345c0,16.74,13.57,30.3,30.3,30.3h142.2c16.74,0,30.3,13.57,30.3,30.3Z"/>
      <path class="cls-2" d="M988.54,304.37c29.48,1.81,23.26,30.32,25.42,64.6.1,23.39.03,46.15.05,70.02,0,150.35,0,314.75,0,467.12,0,43.11,0,84.29,0,126.35.11,41.15,1.42,82.28-29.57,108.3-37.79,32.06-93.46,62.15-139.28,75.06-15.91,3.51-28.51-1.64-31.36-21.3-6.99-172.83-.38-513.32-2.59-698.37.86-38.23-4.5-80.51,23.56-109.64,32.6-32.4,110.12-76.03,153.69-82.14h.09Z"/>
    </g>
  </g>
</svg>