<?xml version="1.0" encoding="UTF-8"?>
<svg id="Layer_2" data-name="Layer 2" xmlns="http://www.w3.org/2000/svg" xmlns:xlink="http://www.w3.org/1999/xlink" viewBox="0 0 512 512">
  <defs>
    <style>
      .cls-1 {
        fill: url(#linear-gradient-5);
      }

      .cls-2 {
        fill: url(#linear-gradient-6);
      }

      .cls-3 {
        fill: url(#linear-gradient-4);
      }

      .cls-4 {
        fill: url(#linear-gradient-3);
      }

      .cls-5 {
        fill: url(#linear-gradient-2);
      }

      .cls-6 {
        fill: url(#linear-gradient);
      }

      .cls-7 {
        fill: #f5f7fa;
      }
    </style>
    <linearGradient id="linear-gradient" x1="50.29" y1="198.86" x2="50.29" y2="313.14" gradientUnits="userSpaceOnUse">
      <stop offset="0" stop-color="#404444"/>
      <stop offset="1" stop-color="#707373"/>
    </linearGradient>
    <linearGradient id="linear-gradient-2" x1="461.71" x2="461.71" xlink:href="#linear-gradient"/>
    <linearGradient id="linear-gradient-3" x1="370.29" y1="107.43" x2="370.29" y2="358.86" xlink:href="#linear-gradient"/>
    <linearGradient id="linear-gradient-4" x1="290.23" y1="130.4" x2="290.23" y2="336.02" gradientUnits="userSpaceOnUse">
      <stop offset="0" stop-color="#1c3d6e"/>
      <stop offset="1" stop-color="#0476a8"/>
    </linearGradient>
    <linearGradient id="linear-gradient-5" x1="141.71" y1="153.14" x2="141.71" y2="404.57" xlink:href="#linear-gradient"/>
    <linearGradient id="linear-gradient-6" x1="221.64" y1="176.04" x2="221.64" y2="381.72" xlink:href="#linear-gradient-4"/>
  </defs>
  <g id="Layer_1-2" data-name="Layer 1">
    <g>
      <rect class="cls-7" x="0" width="512" height="512" rx="96" ry="96"/>
      <circle class="cls-7" cx="256" cy="256" r="256"/>
      <g>
        <path class="cls-6" d="M84.57,205.69v100.62c0,3.77-3.06,6.83-6.83,6.83h-9.2c-3.77,0-6.83-3.06-6.83-6.83v-32.05c0-3.77-3.06-6.83-6.83-6.83H22.83c-3.77,0-6.83-3.06-6.83-6.83v-9.2c0-3.77,3.06-6.83,6.83-6.83h32.05c3.77,0,6.83-3.06,6.83-6.83v-32.05c0-3.77,3.06-6.83,6.83-6.83h9.2c3.77,0,6.83,3.06,6.83,6.83Z"/>
        <path class="cls-5" d="M496,251.4v9.2c0,3.77-3.06,6.83-6.83,6.83h-32.05c-3.77,0-6.83,3.06-6.83,6.83v32.05c0,3.77-3.06,6.83-6.83,6.83h-9.2c-3.77,0-6.83-3.06-6.83-6.83v-100.62c0-3.77,3.06-6.83,6.83-6.83h9.2c3.77,0,6.83,3.06,6.83,6.83v32.05c0,3.77,3.06,6.83,6.83,6.83h32.05c3.77,0,6.83,3.06,6.83,6.83Z"/>
        <path class="cls-4" d="M404.57,159.97v192.05c0,3.77-3.06,6.83-6.83,6.83h-9.2c-3.77,0-6.83-3.06-6.83-6.83v-77.77c0-3.77-3.06-6.83-6.83-6.83h-32.05c-3.77,0-6.83-3.06-6.83-6.83V114.26c0-3.77,3.06-6.83,6.83-6.83h9.2c3.77,0,6.83,3.06,6.83,6.83v123.48c0,3.77,3.06,6.83,6.83,6.83h9.2c3.77,0,6.83-3.06,6.83-6.83v-77.77c0-3.77,3.06-6.83,6.83-6.83h9.2c3.77,0,6.83,3.06,6.83,6.83Z"/>
        <path class="cls-3" d="M307.41,130.4c6.66.41,5.23,6.87,5.72,14.6.02,5.26,0,10.38.01,15.74,0,33.89,0,70.95,0,105.29,0,9.72,0,19,0,28.48.3,10.79-.22,20.7-9.38,26.7-8.1,5.84-19.43,12.19-28.66,14.58-3.6.78-6.43-.39-7.08-4.83-1.6-39.12-.09-115.63-.59-157.33.2-8.6-1.02-18.13,5.28-24.69,7.39-7.34,24.81-17.14,34.68-18.55h.02Z"/>
        <path class="cls-1" d="M176,251.4v146.34c0,3.77-3.06,6.83-6.83,6.83h-9.2c-3.77,0-6.83-3.06-6.83-6.83v-123.48c0-3.77-3.06-6.83-6.83-6.83h-9.2c-3.77,0-6.83,3.06-6.83,6.83v77.77c0,3.77-3.06,6.83-6.83,6.83h-9.2c-3.77,0-6.83-3.06-6.83-6.83v-192.05c0-3.77,3.06-6.83,6.83-6.83h9.2c3.77,0,6.83,3.06,6.83,6.83v77.77c0,3.77,3.06,6.83,6.83,6.83h32.05c3.77,0,6.83,3.06,6.83,6.83Z"/>
        <path class="cls-2" d="M238.83,176.04c6.64.41,5.24,6.84,5.73,14.56.02,5.27,0,10.4.01,15.78,0,33.89,0,70.95,0,105.3,0,9.72,0,19,0,28.48.02,9.28.32,18.55-6.67,24.41-8.52,7.23-21.07,14.01-31.4,16.92-3.59.79-6.43-.37-7.07-4.8-1.58-38.96-.08-115.71-.58-157.42.19-8.62-1.01-18.15,5.31-24.71,7.35-7.3,24.82-17.14,34.64-18.52h.02Z"/>
      </g>
    </g>
  </g>
</svg>